<?xml version="1.0" encoding="utf-8"?>
<svg xmlns="http://www.w3.org/2000/svg" width="93" height="15" viewBox="0 0 93 15" fill="none">
<g clip-path="url(#clip0_6081_141070)">
<path d="M90.7416 6.89242C89.945 6.89242 89.3018 6.2492 89.3018 5.45256C89.3018 4.65591 89.945 4.0127 90.7416 4.0127C91.5383 4.0127 92.1815 4.65591 92.1815 5.45256C92.1815 6.2433 91.5383 6.89242 90.7416 6.89242ZM90.7416 4.15432C90.0394 4.15432 89.467 4.74443 89.467 5.44666C89.467 6.14888 90.0394 6.73899 90.7416 6.73899C91.4438 6.73899 92.0162 6.14888 92.0162 5.44666C92.0162 4.74443 91.4438 4.15432 90.7416 4.15432ZM91.1252 6.20789L90.7298 5.55878H90.4643V6.20789H90.2872V4.65001H90.7947C91.0603 4.65001 91.2904 4.84475 91.2904 5.11029C91.2904 5.34044 91.137 5.48796 90.9305 5.54697L91.3317 6.21379H91.1252V6.20789ZM90.777 4.82114H90.4643V5.38765H90.777C90.9659 5.38765 91.1134 5.27552 91.1134 5.10439C91.1134 4.93326 90.9718 4.82114 90.777 4.82114Z" fill="#01123F"/>
<path d="M70.0823 4.04224C70.0351 4.04224 70.0174 4.05994 69.5807 4.07764C69.1322 4.09535 68.2884 4.11305 66.5712 4.11305H64.494C62.7827 4.11305 61.9329 4.09535 61.4845 4.07764C61.0537 4.05994 61.036 4.04224 60.9829 4.04224C60.7822 4.04224 60.7822 4.17796 60.7822 4.55563V6.08401C60.7822 6.16662 60.7822 6.36726 60.9475 6.36726C61.1304 6.36726 61.1658 6.30235 61.4609 5.68864C61.6556 5.26376 62.051 4.64415 64.3111 4.62644C64.5471 4.62644 64.6474 4.68545 64.6474 5.05722V12.7876C64.6474 13.4367 64.6474 13.8852 63.8154 13.9324C63.4672 13.9678 63.2371 13.9796 63.2371 14.2157C63.2371 14.4635 63.4495 14.4635 63.5852 14.4635C63.9039 14.4635 65.2493 14.3986 65.5267 14.3986C66.0755 14.3986 66.9429 14.4635 67.4858 14.4635C67.6216 14.4635 67.834 14.4635 67.834 14.2157C67.834 13.9678 67.6039 13.9501 67.2498 13.9324C66.4178 13.8852 66.4178 13.4308 66.4178 12.7522V5.17524C66.4178 4.74446 66.4709 4.65005 66.9547 4.63234C69.026 4.68545 69.3978 5.28146 69.5866 5.68864C69.8876 6.30235 69.9171 6.36726 70.1 6.36726C70.2653 6.36726 70.2653 6.16662 70.2653 6.08401V4.55563C70.283 4.17206 70.283 4.04224 70.0823 4.04224Z" fill="#01123F"/>
<path d="M52.1186 11.8198C51.9711 11.8198 51.9356 11.8847 51.6347 12.4689C50.903 13.8851 49.8762 13.8851 49.1444 13.8851C47.7459 13.8851 47.3977 13.7022 47.3977 12.522V9.66587C47.3977 9.17018 47.5275 9.17019 48.3242 9.17019C49.6873 9.17019 50.1535 9.18789 50.5017 10.4684C50.5843 10.7871 50.6846 10.8697 50.8144 10.8697C51.0151 10.8697 51.0151 10.6396 51.0151 10.5392C51.0151 10.4035 50.9679 9.8252 50.9679 9.70718C50.9679 9.34132 51.0859 7.63001 51.0859 7.39986C51.0859 7.21693 51.0033 7.16382 50.903 7.16382C50.8203 7.16382 50.7377 7.19923 50.6551 7.41167C50.3542 8.29093 50.2066 8.65679 48.3596 8.65679C47.3977 8.65679 47.3977 8.52107 47.3977 7.98997V5.58233C47.3977 4.75028 47.4626 4.63816 48.2947 4.63816C50.6551 4.63816 51.0564 5.26958 51.2511 5.70035C51.5521 6.31407 51.5816 6.37898 51.7645 6.37898C51.9297 6.37898 51.9297 6.17834 51.9297 6.09573V4.56735C51.9297 4.18378 51.9297 4.05396 51.7291 4.05396C51.6819 4.05396 51.6642 4.07166 51.2334 4.08936C50.7849 4.10706 49.9352 4.12477 48.2239 4.12477H47.4272C46.011 4.12477 45.2969 4.10706 44.9311 4.08936C44.5652 4.07166 44.5475 4.05396 44.5121 4.05396C44.3941 4.05396 44.1816 4.05396 44.1816 4.29C44.1816 4.53784 44.4177 4.55555 44.7776 4.57325C45.6097 4.62636 45.6097 5.06894 45.6097 5.75346V12.7698C45.6097 13.4485 45.6097 13.9028 44.7776 13.9501C44.4295 13.9855 44.1816 13.9973 44.1816 14.2333C44.1816 14.4812 44.4 14.4812 44.5298 14.4812C44.6478 14.4812 44.7776 14.4634 45.0432 14.4457C45.3087 14.428 45.7218 14.4103 46.4063 14.4103H46.607C46.7073 14.4103 47.4862 14.428 48.4363 14.4457C49.3982 14.4634 50.5607 14.4812 51.4105 14.4812C51.8943 14.4812 52.0596 14.2982 52.0773 13.9796C52.1304 13.3658 52.3133 12.2978 52.3133 12.0853C52.3133 11.9732 52.2661 11.8198 52.1186 11.8198Z" fill="#01123F"/>
<path d="M79.2465 11.8198C79.099 11.8198 79.0636 11.8847 78.7626 12.4689C78.0309 13.8851 77.0041 13.8851 76.2724 13.8851C74.8738 13.8851 74.5257 13.7022 74.5257 12.522V9.66587C74.5257 9.17018 74.6555 9.17019 75.4521 9.17019C76.8153 9.17019 77.2815 9.18789 77.6296 10.4684C77.7122 10.7871 77.8126 10.8697 77.9424 10.8697C78.143 10.8697 78.143 10.6396 78.143 10.5392C78.143 10.4035 78.0958 9.8252 78.0958 9.70718C78.0958 9.34132 78.2138 7.63001 78.2138 7.39986C78.2138 7.21693 78.1312 7.16382 78.0309 7.16382C77.9483 7.16382 77.8657 7.19923 77.783 7.41167C77.4821 8.29093 77.3346 8.65679 75.4875 8.65679C74.5257 8.65679 74.5257 8.52107 74.5257 7.98997V5.58233C74.5257 4.75028 74.5906 4.63816 75.4226 4.63816C77.783 4.63816 78.1843 5.26958 78.3791 5.70035C78.68 6.31407 78.7095 6.37898 78.8925 6.37898C79.0577 6.37898 79.0577 6.17834 79.0577 6.09573V4.56735C79.0577 4.18378 79.0577 4.05396 78.857 4.05396C78.8098 4.05396 78.7921 4.07166 78.3613 4.08936C77.9129 4.10706 77.0631 4.12477 75.3518 4.12477H74.5552C73.1389 4.12477 72.4249 4.10706 72.059 4.08936C71.6931 4.07166 71.6754 4.05396 71.64 4.05396C71.522 4.05396 71.3096 4.05396 71.3096 4.29C71.3096 4.53784 71.5456 4.55555 71.9056 4.57325C72.7376 4.62636 72.7376 5.06894 72.7376 5.75346V12.7698C72.7376 13.4485 72.7376 13.9028 71.9056 13.9501C71.5574 13.9855 71.3096 13.9973 71.3096 14.2333C71.3096 14.4812 71.5279 14.4812 71.6577 14.4812C71.7758 14.4812 71.9056 14.4634 72.1711 14.4457C72.4367 14.428 72.8498 14.4103 73.5343 14.4103H73.7349C73.8352 14.4103 74.6142 14.428 75.5642 14.4457C76.5261 14.4634 77.6886 14.4812 78.5384 14.4812C79.0223 14.4812 79.1875 14.2982 79.2052 13.9796C79.2583 13.3658 79.4412 12.2978 79.4412 12.0853C79.4412 11.9732 79.394 11.8198 79.2465 11.8198Z" fill="#01123F"/>
<path d="M57.3531 8.055C55.9958 7.4944 55.0103 7.06952 55.0103 5.8657C55.0103 5.20478 55.5414 4.24291 56.8574 4.26061C58.2677 4.27241 58.5687 5.21068 58.7752 5.8657C58.9464 6.3909 59.0113 6.49122 59.1824 6.49122C59.4184 6.49122 59.4184 6.35549 59.4184 5.98373C59.4184 4.49075 59.4184 4.33733 59.2119 4.2193C58.9759 4.10128 57.9727 3.82983 56.9931 3.82983C54.8392 3.82983 53.6531 5.18708 53.6531 6.74496C53.6531 8.54479 54.9926 9.20571 56.3676 9.81352C57.5891 10.3741 58.7398 11.0173 58.7398 12.3392C58.7398 13.661 57.4003 14.1803 56.6921 14.1803C55.4883 14.1803 54.3258 13.1653 54.0013 11.6842C53.9658 11.5307 53.9481 11.3596 53.7947 11.3596C53.5882 11.3596 53.5823 11.5956 53.5823 11.6665C53.5705 12.2802 53.6472 13.006 53.6708 13.2243C53.718 13.6433 53.7829 13.9856 53.9717 14.1272C54.2786 14.3455 55.1166 14.6701 56.4384 14.6701C58.6926 14.6701 60.0853 13.0945 60.0853 11.2121C60.0853 9.29423 58.3031 8.46218 57.3531 8.055Z" fill="#01123F"/>
<path d="M17.3978 3.83557C14.1404 3.83557 11.6855 6.1724 11.6855 9.22915C11.6855 12.4688 14.4118 14.6699 17.3506 14.6699C20.2893 14.6699 22.9979 12.3626 22.9979 9.07572C22.992 6.16059 20.5431 3.83557 17.3978 3.83557ZM17.4804 14.2038C15.2439 14.2038 13.6447 11.6073 13.6447 8.87509C13.6447 6.47925 15.1436 4.30176 17.1971 4.30176C19.8349 4.30176 21.021 7.13427 21.021 9.14064C21.021 11.5896 19.8054 14.2038 17.4804 14.2038Z" fill="#01123F"/>
<path d="M10.6219 0C10.6219 0 10.5747 0.0236043 9.9256 0.0472086C9.30009 0.0708129 8.04316 0.0944172 5.54701 0.0944172H5.02181C2.64368 0.0944172 1.77622 0.0708129 1.15071 0.0472086C0.5488 0.0236043 0.525196 0 0.477987 0C0.312757 0 0 0 0 0.336361C0 0.672722 0.359965 0.696327 0.861557 0.743535C2.06538 0.814348 2.06538 1.46347 2.06538 2.44895V12.3982C2.06538 13.1948 2.06538 13.7495 1.03859 13.8085C0.60781 13.8498 0.324559 13.8675 0.324559 14.1567C0.324559 14.4635 0.590107 14.4635 0.755337 14.4635C1.14481 14.4635 2.83842 14.3809 3.18658 14.3809C3.8652 14.3809 4.9628 14.4635 5.63553 14.4635C5.80076 14.4635 6.0663 14.4635 6.0663 14.1567C6.0663 13.8498 5.78305 13.8262 5.35227 13.8085C4.33139 13.7495 4.33139 13.1948 4.33139 12.3568V8.66868C4.33139 7.99005 4.33139 7.7186 4.72086 7.61238C4.9746 7.54157 6.08401 7.54157 6.79214 7.54157C7.39404 7.54157 8.92832 7.54157 9.26468 8.83981C9.31189 8.95783 9.47122 9.58334 9.53023 9.75447C9.57154 9.8725 9.66596 10.1498 9.9138 10.138C10.203 10.1262 10.203 9.84889 10.203 9.68366L10.1085 8.55656C10.0613 8.00185 10.0613 7.59468 10.0613 7.38224C10.0613 7.02228 10.1321 5.38768 10.1321 5.05132C10.1321 4.80937 10.0613 4.65595 9.84299 4.64414C9.63055 4.63234 9.50663 4.83888 9.45942 5.02771C9.15257 6.27284 8.8103 6.80394 6.86295 6.80394C6.50298 6.80394 5.07492 6.80394 4.71496 6.75673C4.4022 6.70952 4.33139 6.68592 4.33139 5.38768V2.02997C4.33139 0.902864 4.73856 0.855656 5.55881 0.855656C9.29419 0.855656 9.60695 1.36905 10.3269 2.96824C10.4154 3.16888 10.5098 3.44623 10.7754 3.44623C11.0409 3.44623 11.0409 3.06266 11.0409 2.99184V0.448482C11.0291 0.118021 11.0055 0 10.6219 0Z" fill="#01123F"/>
<path d="M32.6995 13.9619C32.2333 13.8911 32.0032 13.4781 31.6727 12.8997L30.0617 10.0436C29.6782 9.3473 29.4775 9.24698 29.2651 9.11126C29.8316 8.99324 31.5429 8.59787 31.5429 6.65051C31.5429 6.0663 31.295 4.04224 28.3504 4.04224C27.8488 4.04224 25.6418 4.10715 25.1933 4.10715C24.9927 4.10715 24.1784 4.04224 24.0131 4.04224C23.4643 4.04224 23.3994 4.04224 23.3994 4.27828C23.3994 4.51432 23.6355 4.52612 23.9954 4.54383C24.8098 4.59104 24.8098 5.04542 24.8098 5.72404V12.7699C24.8098 13.4662 24.8098 13.9029 23.9954 13.9678C23.6473 13.9855 23.3994 14.0032 23.3994 14.2334C23.3994 14.4812 23.6178 14.4635 23.7476 14.4635C24.0485 14.4635 25.394 14.3986 25.6772 14.3986C25.7421 14.3986 27.359 14.4635 27.6718 14.4635C27.8016 14.4635 28.02 14.4812 28.02 14.2452C28.02 13.9973 27.7839 13.9796 27.4239 13.9619C26.5919 13.9147 26.5919 13.4603 26.5919 12.764V9.77218C26.5919 9.48893 26.6273 9.38861 26.9106 9.38861C27.66 9.38861 27.7426 9.45352 28.1085 10.1675L30.1207 13.956C30.3037 14.3042 30.3686 14.4576 30.6695 14.4576H32.8588C32.9769 14.4576 33.1421 14.4281 33.1421 14.257C33.1244 14.08 33.0477 14.015 32.6995 13.9619ZM27.4121 8.96373C26.5801 8.96373 26.5801 8.92832 26.5801 8.35002V5.55881C26.5801 4.90969 26.5978 4.51432 27.359 4.51432C29.4185 4.51432 29.6546 6.29055 29.6546 6.89245C29.6546 8.96373 28.0141 8.96373 27.4121 8.96373Z" fill="#01123F"/>
<path d="M43.1253 13.9619C42.6591 13.8911 42.429 13.4781 42.0985 12.8997L40.4875 10.0436C40.1039 9.3473 39.9033 9.24698 39.6909 9.11126C40.2574 8.99324 41.9687 8.59787 41.9687 6.65051C41.9687 6.0663 41.7208 4.04224 38.7762 4.04224C38.2746 4.04224 36.0676 4.10715 35.6191 4.10715C35.4185 4.10715 34.6041 4.04224 34.4389 4.04224C33.8901 4.04224 33.8252 4.04224 33.8252 4.27828C33.8252 4.51432 34.0612 4.52612 34.4212 4.54383C35.2356 4.59104 35.2356 5.04542 35.2356 5.72404V12.7699C35.2356 13.4662 35.2356 13.9029 34.4212 13.9678C34.073 13.9855 33.8252 14.0032 33.8252 14.2334C33.8252 14.4812 34.0435 14.4635 34.1734 14.4635C34.4743 14.4635 35.8198 14.3986 36.103 14.3986C36.1679 14.3986 37.7848 14.4635 38.0976 14.4635C38.2274 14.4635 38.4457 14.4812 38.4457 14.2452C38.4457 13.9973 38.2097 13.9796 37.8497 13.9619C37.0177 13.9147 37.0177 13.4603 37.0177 12.764V9.77218C37.0177 9.48893 37.0531 9.38861 37.3363 9.38861C38.0858 9.38861 38.1684 9.45352 38.5343 10.1675L40.5465 13.956C40.7294 14.3042 40.7944 14.4576 41.0953 14.4576H43.2846C43.4026 14.4576 43.5679 14.4281 43.5679 14.257C43.5502 14.08 43.4735 14.015 43.1253 13.9619ZM37.8379 8.96373C37.0059 8.96373 37.0059 8.92832 37.0059 8.35002V5.55881C37.0059 4.90969 37.0236 4.51432 37.7848 4.51432C39.8443 4.51432 40.0803 6.29055 40.0803 6.89245C40.0803 8.96373 38.4398 8.96373 37.8379 8.96373Z" fill="#01123F"/>
<path d="M89.6858 13.9619C89.2196 13.8911 88.9895 13.4781 88.659 12.8997L87.048 10.0436C86.6645 9.3473 86.4638 9.24698 86.2514 9.11126C86.8179 8.99324 88.5292 8.59787 88.5292 6.65051C88.5292 6.0663 88.2814 4.04224 85.3367 4.04224C84.8352 4.04224 82.6281 4.10715 82.1797 4.10715C81.979 4.10715 81.1647 4.04224 80.9994 4.04224C80.4507 4.04224 80.3857 4.04224 80.3857 4.27828C80.3857 4.51432 80.6218 4.52612 80.9817 4.54383C81.7961 4.59104 81.7961 5.04542 81.7961 5.72404V12.7699C81.7961 13.4662 81.7961 13.9029 80.9817 13.9678C80.6336 13.9855 80.3857 14.0032 80.3857 14.2334C80.3857 14.4812 80.6041 14.4635 80.7339 14.4635C81.0349 14.4635 82.3803 14.3986 82.6636 14.3986C82.7285 14.3986 84.3454 14.4635 84.6581 14.4635C84.7879 14.4635 85.0063 14.4812 85.0063 14.2452C85.0063 13.9973 84.7702 13.9796 84.4103 13.9619C83.5782 13.9147 83.5782 13.4603 83.5782 12.764V9.77218C83.5782 9.48893 83.6136 9.38861 83.8969 9.38861C84.6463 9.38861 84.7289 9.45352 85.0948 10.1675L87.1071 13.956C87.29 14.3042 87.3549 14.4576 87.6559 14.4576H89.8452C89.9632 14.4576 90.1284 14.4281 90.1284 14.257C90.1166 14.08 90.034 14.015 89.6858 13.9619ZM84.4044 8.96373C83.5723 8.96373 83.5723 8.92832 83.5723 8.35002V5.55881C83.5723 4.90969 83.59 4.51432 84.3513 4.51432C86.4107 4.51432 86.6468 6.29055 86.6468 6.89245C86.6468 8.96373 85.0004 8.96373 84.4044 8.96373Z" fill="#01123F"/>
</g>
<defs>
<clipPath id="clip0_6081_141070">
<rect width="92.1807" height="14.6701" fill="white"/>
</clipPath>
</defs>
</svg>