<?xml version="1.0" encoding="utf-8"?>
<svg xmlns="http://www.w3.org/2000/svg" width="150" height="9" viewBox="0 0 150 9" fill="none">
<g clip-path="url(#clip0_6107_141726)">
<path fill-rule="evenodd" clip-rule="evenodd" d="M0.784253 3.4792C0.784253 3.02941 0.445948 2.91792 0 2.91792V2.69495H4.26342V3.81751H4.04044C3.92896 3.14474 3.70214 3.03325 2.8064 3.03325H1.68384V5.05155H2.69491C3.1447 5.05155 3.36768 5.05155 3.36768 4.37878H3.70598V6.06262H3.36768C3.36768 5.38986 3.25619 5.38986 2.69491 5.38986H1.68384V6.96221C1.68384 7.52349 1.90681 7.63497 2.3566 7.63497H2.57958V7.85795H0V7.63497C0.449792 7.63497 0.784253 7.52349 0.784253 7.18518V3.48304V3.4792Z" fill="#13426C"/>
<path fill-rule="evenodd" clip-rule="evenodd" d="M11.3333 5.04771V3.02941C11.4447 3.02941 11.783 2.91792 11.8945 2.91792C12.6788 2.91792 13.1286 3.25623 13.1286 3.92899C13.1286 4.71325 12.6788 5.05155 11.783 5.05155H11.3333V5.04771ZM10.4337 7.18134C10.4337 7.51964 10.2107 7.63113 9.64941 7.63113V7.8541H12.1175V7.63113C11.6677 7.63113 11.3333 7.51964 11.3333 7.18134V5.38601H12.1175C12.6788 6.28175 13.2401 7.40431 13.6899 7.8541H15.0354V7.63113C14.3626 7.40816 14.0243 7.18134 12.9056 5.16304C13.6899 4.94006 14.0282 4.60176 14.0282 3.92899C14.0282 3.14474 13.3554 2.69495 12.4558 2.69495H9.64941V2.91792C10.2107 2.91792 10.4337 3.02941 10.4337 3.4792V7.18134Z" fill="#13426C"/>
<path fill-rule="evenodd" clip-rule="evenodd" d="M21.4282 5.15911C21.4282 4.03655 21.878 2.91399 23.2235 2.91399C24.2346 2.91399 25.1304 3.92506 25.1304 5.38208C25.1304 6.50464 24.6806 7.6272 23.335 7.6272C22.2125 7.6272 21.4282 6.61613 21.4282 5.15911ZM20.3057 5.27444C20.3057 6.84679 21.5397 7.96551 23.2235 7.96551C25.0189 7.96551 26.1414 6.50849 26.1414 5.27444C26.1414 3.70209 25.0189 2.58337 23.335 2.58337C21.7627 2.58337 20.3057 3.59445 20.3057 5.27444Z" fill="#13426C"/>
<path fill-rule="evenodd" clip-rule="evenodd" d="M31.9736 6.61997H32.3119C32.4234 7.29274 32.7617 7.74253 33.546 7.74253C34.4417 7.74253 34.5571 7.18125 34.5571 6.84679C34.5571 6.397 34.3341 6.17402 33.6613 5.72423C32.4273 5.16295 32.2043 4.71316 32.2043 3.92891C32.2043 3.25614 32.7656 2.58337 33.6613 2.58337C34.1111 2.58337 34.5571 2.69486 35.0068 2.69486V3.70593H34.7839C34.6724 3.25614 34.4456 2.81019 33.7728 2.81019C33.2115 2.81019 32.8771 3.25999 32.8771 3.70593C32.8771 4.15188 32.9886 4.3787 33.9996 4.93998C35.1222 5.38977 35.3452 5.83572 35.3452 6.51233C35.3452 7.40807 34.5609 7.96935 33.5498 7.96935C32.9885 7.96935 32.5388 7.85786 32.2043 7.74638L31.9813 6.62382L31.9736 6.61997Z" fill="#13426C"/>
<path fill-rule="evenodd" clip-rule="evenodd" d="M42.7454 3.02942H41.9611C41.2883 3.02942 41.1768 3.14091 41.0654 3.81367H40.7271L40.95 2.46814H41.173C41.173 2.69111 41.396 2.69111 41.6228 2.69111H44.9866C45.2096 2.69111 45.3249 2.69111 45.5479 2.46814H45.7709L45.6594 3.81367H45.3211C45.3211 3.14091 45.2096 3.02942 44.7598 3.02942H43.6372V7.18135C43.6372 7.51965 43.9755 7.63114 44.533 7.63114V7.85412H41.9534V7.63114C42.5147 7.63114 42.7377 7.51965 42.7377 7.18135V3.02942H42.7454Z" fill="#13426C"/>
<path fill-rule="evenodd" clip-rule="evenodd" d="M59.4608 2.80634C59.6838 2.80634 59.9106 2.91782 59.9106 3.02931V3.25228L58.8996 4.26336C58.5613 4.60166 58.3383 4.93612 58.0038 5.27443C57.8923 5.16294 57.8923 5.05145 57.8923 4.93612C57.8923 3.92505 58.5651 2.80634 59.4647 2.80634H59.4608ZM62.6017 4.59782C62.6017 4.03654 61.9289 4.48633 61.9289 3.81356C61.9289 3.36377 62.2672 3.1408 62.6017 3.1408C62.9362 3.1408 63.4974 3.36377 63.6128 3.59059C63.5013 4.48633 63.3898 5.38592 62.717 6.05868C62.2672 6.61996 61.3715 7.29273 60.1374 7.29273C59.5762 7.29273 59.0149 7.06975 58.5651 6.61996C58.4536 6.39699 58.2268 6.17017 58.2268 5.83571C58.2268 5.50125 58.3383 5.27443 58.5651 5.05145L59.1264 4.37869L59.5762 3.9289L61.7098 1.9106C62.0481 1.57229 62.7209 0.899525 62.7209 0.565064C62.7209 0.230603 62.4979 0.00378418 62.2711 0.00378418C62.0443 0.00378418 61.9328 0.226758 61.9328 0.453577V0.903369C61.9328 1.35316 61.037 2.13741 60.8102 2.47572C60.5872 2.25275 60.3604 2.13741 60.1374 2.13741C58.6804 2.13741 57.3311 3.93274 57.3311 5.27827C57.3311 6.96211 58.4536 8.08467 60.0221 8.08467C61.9289 8.08467 62.8285 6.85062 63.2745 6.06637C63.7243 5.28212 63.8357 4.49402 63.8357 3.82125C64.0587 4.04423 64.397 4.38253 64.7315 4.38253C65.4043 4.38253 66.1885 3.70977 66.1885 3.037C66.1885 2.81403 66.077 2.47572 65.7387 2.47572C65.6272 2.47572 65.4004 2.69869 65.4004 2.81403C65.4004 3.15233 65.7387 3.26382 65.7387 3.48679C65.7387 3.70977 65.5157 3.93658 65.2889 3.93658C64.6162 3.93658 64.3932 2.59105 63.2706 2.59105C62.4864 2.59105 61.3638 3.3753 61.3638 4.27489C61.3638 4.83617 61.8136 5.05914 62.0366 5.05914C62.2595 5.05914 62.5979 4.94766 62.5979 4.60935L62.6017 4.59782Z" fill="#13426C"/>
<path fill-rule="evenodd" clip-rule="evenodd" d="M77.4102 6.61997H77.6331C77.8561 7.29274 78.1944 7.74253 78.9787 7.74253C79.7629 7.74253 79.9897 7.18125 79.9897 6.84679C79.9897 6.397 79.6514 6.17402 78.9787 5.72423C77.8561 5.16295 77.5216 4.71316 77.5216 3.92891C77.5216 3.25614 78.1944 2.58337 79.094 2.58337C79.4323 2.58337 79.9897 2.69486 80.328 2.69486L80.4395 3.70593H80.2166C80.1051 3.25614 79.8782 2.81019 79.094 2.81019C78.6442 2.81019 78.1983 3.25999 78.1983 3.70593C78.1983 4.15188 78.4212 4.3787 79.4323 4.93998C80.5549 5.38977 80.7778 5.83572 80.7778 6.51233C80.7778 7.40807 79.9936 7.96935 78.871 7.96935C78.4212 7.96935 77.9753 7.85786 77.5255 7.74638L77.414 6.62382L77.4102 6.61997Z" fill="#13426C"/>
<path fill-rule="evenodd" clip-rule="evenodd" d="M86.837 3.36381C86.837 2.91401 86.3872 2.91401 86.0527 2.91401V2.69104H88.4093V2.91401C88.071 2.91401 87.7366 2.91401 87.7366 3.36381V6.1702C87.7366 7.18128 88.2979 7.51574 89.1936 7.51574C90.6506 7.51574 90.6506 6.39318 90.6506 5.38211V4.14806C90.6506 3.0255 90.5391 2.91401 89.7549 2.91401V2.69104H91.7732V2.91401C91.3234 2.91401 91.1004 3.0255 91.1004 3.69827V5.8319C91.1004 7.06594 90.5391 7.96168 88.9706 7.96168C87.6251 7.96168 86.837 7.51189 86.837 6.27785V3.35996V3.36381Z" fill="#13426C"/>
<path fill-rule="evenodd" clip-rule="evenodd" d="M97.8282 3.4792C97.8282 3.02941 97.6052 2.91792 97.0439 2.91792V2.69495H99.512V2.91792C99.0622 2.91792 98.7278 3.02941 98.7278 3.4792V6.95836C98.7278 7.40816 98.9508 7.51964 99.7389 7.51964C100.635 7.51964 100.861 7.40816 101.311 6.50857H101.534L101.311 7.8541H97.0478V7.63113C97.6091 7.63113 97.832 7.51964 97.832 7.18134V3.4792H97.8282Z" fill="#13426C"/>
<path fill-rule="evenodd" clip-rule="evenodd" d="M107.477 3.4792C107.477 3.02941 107.139 2.91792 106.693 2.91792V2.69495H109.161V2.91792C108.711 2.91792 108.377 3.02941 108.377 3.4792V6.95836C108.377 7.40816 108.488 7.51964 109.388 7.51964C110.287 7.51964 110.51 7.40816 110.96 6.50857H111.183L110.845 7.8541H106.693V7.63113C107.143 7.63113 107.477 7.51964 107.477 7.18134V3.4792Z" fill="#13426C"/>
<path fill-rule="evenodd" clip-rule="evenodd" d="M116.903 3.4792C116.903 3.02941 116.68 2.91792 116.119 2.91792V2.69495H118.587V2.91792C118.137 2.91792 117.803 3.02941 117.803 3.4792V7.18134C117.803 7.51964 118.141 7.63113 118.587 7.63113V7.8541H116.119V7.63113C116.68 7.63113 116.903 7.51964 116.903 7.18134V3.4792Z" fill="#13426C"/>
<path fill-rule="evenodd" clip-rule="evenodd" d="M124.308 3.47914C124.197 3.02935 124.085 2.91786 123.635 2.91786V2.69488H125.88V2.91786H125.657C125.434 2.91786 125.319 3.02935 125.319 3.25616V3.47914L126.776 6.84297L128.01 3.70211C128.01 3.59062 128.122 3.36381 128.122 3.25232C128.122 2.91401 127.783 2.91401 127.337 2.91401V2.69104H129.244V2.91401C128.906 2.91401 128.794 2.91401 128.46 3.58678L126.665 7.96168H126.215L124.308 3.47529V3.47914Z" fill="#13426C"/>
<path fill-rule="evenodd" clip-rule="evenodd" d="M137.21 5.60894H135.638L136.422 3.47531L137.206 5.60894H137.21ZM137.095 7.85405H139.451V7.63108C138.89 7.63108 138.779 7.40811 138.556 6.95831L136.983 2.47192L136.199 2.81023V2.92172C136.199 3.0332 136.199 3.14469 136.087 3.26002L134.63 7.18513C134.519 7.40811 134.292 7.63493 133.846 7.63493V7.8579H135.753V7.63493H135.642C135.419 7.63493 135.08 7.52344 135.08 7.29662C135.08 7.0698 135.192 6.73534 135.303 6.62385L135.526 5.95109H137.322L137.66 6.96216C137.734 7.11081 137.771 7.22358 137.771 7.30046C137.771 7.52344 137.433 7.63877 137.21 7.63877H137.099V7.86174L137.095 7.85405Z" fill="#13426C"/>
<path fill-rule="evenodd" clip-rule="evenodd" d="M145.06 3.4792C145.06 3.02941 144.387 2.91792 144.276 2.91792V2.69495H145.622L148.874 6.50857V3.70217C148.874 3.02941 148.651 2.91792 148.09 2.91792V2.69495H149.996V2.91792C149.547 2.91792 149.324 3.02941 149.324 3.4792V7.96559H149.101L145.51 3.81366V6.62006C145.51 7.40431 145.622 7.63113 146.406 7.63113V7.8541H144.161V7.63113C145.056 7.63113 145.056 7.18134 145.056 6.39708V3.4792H145.06Z" fill="#13426C"/>
</g>
<defs>
<clipPath id="clip0_6107_141726">
<rect width="150" height="8.07704" fill="white"/>
</clipPath>
</defs>
</svg>