<?xml version="1.0" encoding="utf-8"?>
<svg xmlns="http://www.w3.org/2000/svg" width="311" height="311" viewBox="0 0 311 311" fill="none">
<path opacity="0.7" d="M0.924316 5.63331C0.924316 3.14803 2.93904 1.1333 5.42432 1.1333H305.792C308.277 1.1333 310.292 3.14802 310.292 5.6333V306C310.292 308.485 308.277 310.5 305.792 310.5H5.4243C2.93903 310.5 0.924316 308.485 0.924316 306V5.63331Z" fill="#0254EC" stroke="#0254EC"/>
<rect x="0.939886" y="1.14887" width="309.337" height="309.336" rx="4.54111" stroke="#0254EC" stroke-width="1.03114"/>
<mask id="mask0_6081_140965" style="mask-type:alpha" maskUnits="userSpaceOnUse" x="15" y="16" width="281" height="280">
<path d="M155.612 295.201C232.592 295.201 294.996 232.796 294.996 155.817C294.996 78.8368 232.592 16.4324 155.612 16.4324C78.6324 16.4324 16.228 78.8368 16.228 155.817C16.228 232.796 78.6324 295.201 155.612 295.201Z" fill="#D9D9D9" stroke="white" stroke-width="0.819326" stroke-miterlimit="10"/>
</mask>
<g mask="url(#mask0_6081_140965)">
<path d="M155.643 156.973L158.839 16.8757" stroke="#99BDFF" stroke-width="0.819326" stroke-miterlimit="10"/>
<path opacity="0.95" d="M155.643 156.973L161.799 17.0993" stroke="#99BDFF" stroke-width="0.819326" stroke-miterlimit="10"/>
<path opacity="0.91" d="M155.643 156.973L164.757 17.3271" stroke="#99BDFF" stroke-width="0.819326" stroke-miterlimit="10"/>
<path opacity="0.86" d="M155.643 156.973L167.717 17.5507" stroke="#99BDFF" stroke-width="0.819326" stroke-miterlimit="10"/>
<path opacity="0.82" d="M155.643 156.973L170.675 17.7785" stroke="#99BDFF" stroke-width="0.819326" stroke-miterlimit="10"/>
<path opacity="0.77" d="M155.643 156.973L173.636 18.002" stroke="#99BDFF" stroke-width="0.819326" stroke-miterlimit="10"/>
<path opacity="0.73" d="M155.643 156.973L176.598 18.2319" stroke="#99BDFF" stroke-width="0.819326" stroke-miterlimit="10"/>
<path opacity="0.68" d="M155.643 156.973L179.558 18.4556" stroke="#99BDFF" stroke-width="0.819326" stroke-miterlimit="10"/>
<path opacity="0.64" d="M155.643 156.973L182.516 18.6833" stroke="#99BDFF" stroke-width="0.819326" stroke-miterlimit="10"/>
<path opacity="0.59" d="M155.643 156.973L185.476 18.9069" stroke="#99BDFF" stroke-width="0.819326" stroke-miterlimit="10"/>
<path opacity="0.55" d="M155.643 156.973L188.435 19.1347" stroke="#99BDFF" stroke-width="0.819326" stroke-miterlimit="10"/>
<path opacity="0.5" d="M155.643 156.973L191.395 19.3583" stroke="#99BDFF" stroke-width="0.819326" stroke-miterlimit="10"/>
<path opacity="0.45" d="M155.643 156.973L194.357 19.5882" stroke="#99BDFF" stroke-width="0.819326" stroke-miterlimit="10"/>
<path opacity="0.41" d="M155.643 156.973L197.317 19.8118" stroke="#99BDFF" stroke-width="0.819326" stroke-miterlimit="10"/>
<path opacity="0.36" d="M155.643 156.973L200.275 20.0395" stroke="#99BDFF" stroke-width="0.819326" stroke-miterlimit="10"/>
<path opacity="0.32" d="M155.643 156.973L203.236 20.2631" stroke="#99BDFF" stroke-width="0.819326" stroke-miterlimit="10"/>
<path opacity="0.27" d="M155.643 156.973L206.194 20.4909" stroke="#99BDFF" stroke-width="0.819326" stroke-miterlimit="10"/>
<path opacity="0.23" d="M155.643 156.973L209.154 20.7146" stroke="#99BDFF" stroke-width="0.819326" stroke-miterlimit="10"/>
<path opacity="0.18" d="M155.643 156.973L212.112 20.9423" stroke="#99BDFF" stroke-width="0.819326" stroke-miterlimit="10"/>
<path opacity="0.14" d="M155.643 156.973L215.076 21.168" stroke="#99BDFF" stroke-width="0.819326" stroke-miterlimit="10"/>
<path opacity="0.09" d="M155.643 156.973L218.034 21.3958" stroke="#99BDFF" stroke-width="0.819326" stroke-miterlimit="10"/>
<path opacity="0.05" d="M155.643 156.973L220.995 21.6194" stroke="#99BDFF" stroke-width="0.819326" stroke-miterlimit="10"/>
</g>
<path d="M155.613 183.847C171.094 183.847 183.643 171.297 183.643 155.817C183.643 140.336 171.094 127.786 155.613 127.786C140.132 127.786 127.582 140.336 127.582 155.817C127.582 171.297 140.132 183.847 155.613 183.847Z" stroke="white" stroke-width="0.819326" stroke-miterlimit="10"/>
<path d="M155.613 211.771C186.516 211.771 211.568 186.719 211.568 155.816C211.568 124.913 186.516 99.8612 155.613 99.8612C124.71 99.8612 99.6577 124.913 99.6577 155.816C99.6577 186.719 124.71 211.771 155.613 211.771Z" stroke="white" stroke-width="0.819326" stroke-miterlimit="10"/>
<path d="M155.613 239.522C201.842 239.522 239.318 202.046 239.318 155.817C239.318 109.588 201.842 72.1115 155.613 72.1115C109.383 72.1115 71.9072 109.588 71.9072 155.817C71.9072 202.046 109.383 239.522 155.613 239.522Z" stroke="white" stroke-width="0.819326" stroke-miterlimit="10"/>
<path d="M155.612 267.824C217.473 267.824 267.62 217.677 267.62 155.817C267.62 93.9565 217.473 43.809 155.612 43.809C93.7524 43.809 43.605 93.9565 43.605 155.817C43.605 217.677 93.7524 267.824 155.612 267.824Z" stroke="white" stroke-width="0.819326" stroke-miterlimit="10"/>
<path d="M155.612 295.201C232.592 295.201 294.996 232.796 294.996 155.817C294.996 78.8367 232.592 16.4323 155.612 16.4323C78.6324 16.4323 16.228 78.8367 16.228 155.817C16.228 232.796 78.6324 295.201 155.612 295.201Z" stroke="white" stroke-width="0.819326" stroke-miterlimit="10"/>
<path d="M155.612 295.201L155.612 16.4323" stroke="white" stroke-width="0.819326" stroke-miterlimit="10"/>
<path d="M294.996 155.816L16.228 155.816" stroke="white" stroke-width="0.819326" stroke-miterlimit="10"/>
<g filter="url(#filter0_d_6081_140965)">
<circle cx="234.446" cy="57.0928" r="16.0441" fill="white"/>
</g>
<g filter="url(#filter1_f_6081_140965)">
<circle cx="234.446" cy="57.0928" r="16.0441" fill="white"/>
</g>
<path d="M234.4 54.193V61.2344C234.4 61.2623 234.411 61.2891 234.431 61.3088C234.451 61.3285 234.478 61.3396 234.506 61.3396H236.083C236.111 61.3396 236.138 61.3285 236.158 61.3088C236.177 61.2891 236.189 61.2623 236.189 61.2344V54.193C236.189 54.1651 236.177 54.1383 236.158 54.1186C236.138 54.0988 236.111 54.0878 236.083 54.0878H234.506C234.478 54.0878 234.451 54.0988 234.431 54.1186C234.411 54.1383 234.4 54.1651 234.4 54.193ZM236.862 61.2036C236.855 61.2179 236.851 61.2339 236.852 61.2499C236.853 61.266 236.858 61.2815 236.866 61.2951C236.875 61.3087 236.887 61.3199 236.901 61.3276C236.915 61.3353 236.931 61.3392 236.947 61.339H242.673C242.687 61.3391 242.701 61.3365 242.714 61.3313C242.727 61.3261 242.739 61.3184 242.749 61.3086C242.759 61.2988 242.767 61.2872 242.772 61.2744C242.778 61.2615 242.78 61.2478 242.781 61.2338V59.8551C242.78 59.8412 242.778 59.8274 242.772 59.8146C242.767 59.8018 242.759 59.7902 242.749 59.7804C242.739 59.7706 242.727 59.7629 242.714 59.7577C242.701 59.7525 242.687 59.7498 242.673 59.7499H239.784C239.768 59.7502 239.752 59.7461 239.737 59.7382C239.723 59.7303 239.711 59.7188 239.703 59.7048C239.694 59.6908 239.689 59.6749 239.689 59.6586C239.689 59.6423 239.693 59.6262 239.7 59.6118L242.704 54.226C242.711 54.2117 242.715 54.1955 242.715 54.1792C242.715 54.1629 242.71 54.147 242.701 54.133C242.693 54.119 242.681 54.1075 242.667 54.0996C242.652 54.0916 242.636 54.0876 242.62 54.0878H236.95C236.935 54.0877 236.922 54.0903 236.909 54.0955C236.896 54.1007 236.884 54.1084 236.874 54.1182C236.864 54.128 236.856 54.1396 236.85 54.1524C236.845 54.1653 236.842 54.179 236.842 54.193V55.7196C236.842 55.7336 236.845 55.7473 236.85 55.7602C236.856 55.773 236.864 55.7846 236.874 55.7944C236.884 55.8042 236.896 55.8119 236.909 55.8171C236.922 55.8223 236.935 55.825 236.95 55.8248H239.468C239.484 55.8246 239.5 55.8286 239.515 55.8363C239.529 55.844 239.541 55.8551 239.549 55.8687C239.558 55.8824 239.563 55.8979 239.564 55.914C239.564 55.93 239.561 55.946 239.554 55.9603L236.862 61.2036ZM233.738 54.0873H232.08C232.059 54.0874 232.038 54.0938 232.02 54.106C232.002 54.1181 231.989 54.1352 231.981 54.1551L230.814 57.1893C230.812 57.1962 230.807 57.2021 230.801 57.2064C230.795 57.2106 230.788 57.213 230.78 57.2133C230.773 57.2135 230.765 57.2116 230.759 57.2077C230.753 57.2038 230.748 57.1982 230.745 57.1915L229.351 54.1773C229.338 54.1464 229.316 54.1199 229.288 54.1007C229.26 54.0814 229.227 54.0702 229.193 54.0683C229.193 54.0683 229.192 54.0683 229.192 54.0683C229.192 54.0683 229.191 54.0683 229.191 54.0683C229.156 54.0696 229.122 54.0805 229.094 54.0998C229.065 54.119 229.042 54.1459 229.028 54.1773L227.635 57.1907C227.632 57.1973 227.627 57.2027 227.621 57.2065C227.615 57.2103 227.607 57.2123 227.6 57.2121C227.593 57.212 227.586 57.2097 227.58 57.2057C227.574 57.2016 227.569 57.1959 227.566 57.1893L226.399 54.1551C226.391 54.1352 226.377 54.1181 226.36 54.106C226.342 54.0938 226.321 54.0874 226.3 54.0873H224.642C224.625 54.0874 224.608 54.0916 224.593 54.0997C224.577 54.1077 224.564 54.1193 224.555 54.1335C224.545 54.1477 224.539 54.164 224.537 54.1811C224.535 54.1981 224.537 54.2154 224.543 54.2314L227.284 61.3137C227.287 61.3205 227.291 61.3264 227.297 61.3306C227.303 61.3349 227.31 61.3373 227.317 61.3377C227.325 61.338 227.332 61.3363 227.338 61.3326C227.344 61.3289 227.35 61.3235 227.353 61.3171L229.022 57.9995C229.037 57.9684 229.061 57.9423 229.091 57.924C229.121 57.9058 229.155 57.8961 229.19 57.8961C229.225 57.8961 229.259 57.9058 229.288 57.924C229.318 57.9423 229.342 57.9684 229.357 57.9995L231.026 61.3171C231.03 61.3235 231.035 61.3289 231.041 61.3326C231.047 61.3363 231.055 61.338 231.062 61.3377C231.069 61.3373 231.076 61.3349 231.082 61.3306C231.088 61.3264 231.093 61.3205 231.095 61.3137L233.836 54.2314C233.842 54.2154 233.844 54.1982 233.842 54.1812C233.84 54.1642 233.834 54.1479 233.825 54.1338C233.815 54.1196 233.802 54.108 233.787 54.0999C233.772 54.0918 233.755 54.0875 233.738 54.0873ZM245.271 52.7735C245.279 52.7755 245.286 52.7801 245.291 52.7866C245.297 52.7932 245.299 52.8012 245.299 52.8095C245.299 52.8176 245.296 52.8255 245.291 52.8319C245.286 52.8382 245.279 52.8427 245.271 52.8445C244.972 52.9131 244.518 53.0461 244.333 53.2294C244.148 53.4128 244.014 53.8632 243.945 54.1607C243.943 54.1686 243.939 54.1758 243.933 54.1809C243.926 54.186 243.918 54.1888 243.91 54.1887C243.902 54.1887 243.894 54.1859 243.887 54.1808C243.881 54.1757 243.876 54.1686 243.874 54.1607C243.805 53.8637 243.672 53.4132 243.487 53.2294C243.302 53.0456 242.849 52.9131 242.549 52.8445C242.541 52.8427 242.534 52.8383 242.529 52.8319C242.523 52.8255 242.521 52.8175 242.521 52.8093C242.521 52.8011 242.523 52.7932 242.529 52.7868C242.534 52.7804 242.541 52.7759 242.549 52.7741C242.848 52.7056 243.302 52.5727 243.487 52.3892C243.672 52.2058 243.806 51.7556 243.875 51.458C243.876 51.45 243.881 51.4429 243.887 51.4378C243.894 51.4328 243.902 51.43 243.91 51.4301C243.918 51.43 243.926 51.4328 243.933 51.4378C243.939 51.4429 243.944 51.45 243.945 51.458C244.014 51.7551 244.148 52.2055 244.333 52.3892C244.518 52.573 244.972 52.705 245.271 52.7735Z" fill="#0254EC"/>
<path d="M215.928 90.2195C216.947 90.2195 217.773 89.3934 217.773 88.3745C217.773 87.3556 216.947 86.5295 215.928 86.5295C214.909 86.5295 214.083 87.3556 214.083 88.3745C214.083 89.3934 214.909 90.2195 215.928 90.2195Z" fill="white" stroke="white" stroke-width="0.910796" stroke-miterlimit="10"/>
<g filter="url(#filter2_f_6081_140965)">
<path d="M215.928 90.2195C216.947 90.2195 217.773 89.3934 217.773 88.3745C217.773 87.3556 216.947 86.5295 215.928 86.5295C214.909 86.5295 214.083 87.3556 214.083 88.3745C214.083 89.3934 214.909 90.2195 215.928 90.2195Z" fill="white"/>
<path d="M215.928 90.2195C216.947 90.2195 217.773 89.3934 217.773 88.3745C217.773 87.3556 216.947 86.5295 215.928 86.5295C214.909 86.5295 214.083 87.3556 214.083 88.3745C214.083 89.3934 214.909 90.2195 215.928 90.2195Z" stroke="white" stroke-width="0.910796" stroke-miterlimit="10"/>
</g>
<path d="M215.928 102.853C216.947 102.853 217.773 102.027 217.773 101.008C217.773 99.989 216.947 99.163 215.928 99.163C214.909 99.163 214.083 99.989 214.083 101.008C214.083 102.027 214.909 102.853 215.928 102.853Z" fill="white" stroke="white" stroke-width="0.910796" stroke-miterlimit="10"/>
<g filter="url(#filter3_f_6081_140965)">
<path d="M215.928 102.853C216.947 102.853 217.773 102.027 217.773 101.008C217.773 99.989 216.947 99.163 215.928 99.163C214.909 99.163 214.083 99.989 214.083 101.008C214.083 102.027 214.909 102.853 215.928 102.853Z" fill="white"/>
<path d="M215.928 102.853C216.947 102.853 217.773 102.027 217.773 101.008C217.773 99.989 216.947 99.163 215.928 99.163C214.909 99.163 214.083 99.989 214.083 101.008C214.083 102.027 214.909 102.853 215.928 102.853Z" stroke="white" stroke-width="0.910796" stroke-miterlimit="10"/>
</g>
<path d="M218.401 111.027C219.42 111.027 220.246 110.201 220.246 109.182C220.246 108.163 219.42 107.337 218.401 107.337C217.382 107.337 216.556 108.163 216.556 109.182C216.556 110.201 217.382 111.027 218.401 111.027Z" fill="white" stroke="white" stroke-width="0.910796" stroke-miterlimit="10"/>
<g filter="url(#filter4_f_6081_140965)">
<path d="M218.401 111.027C219.42 111.027 220.246 110.201 220.246 109.182C220.246 108.163 219.42 107.337 218.401 107.337C217.382 107.337 216.556 108.163 216.556 109.182C216.556 110.201 217.382 111.027 218.401 111.027Z" fill="white"/>
<path d="M218.401 111.027C219.42 111.027 220.246 110.201 220.246 109.182C220.246 108.163 219.42 107.337 218.401 107.337C217.382 107.337 216.556 108.163 216.556 109.182C216.556 110.201 217.382 111.027 218.401 111.027Z" stroke="white" stroke-width="0.910796" stroke-miterlimit="10"/>
</g>
<path d="M221.232 118.583C222.251 118.583 223.077 117.757 223.077 116.738C223.077 115.719 222.251 114.893 221.232 114.893C220.213 114.893 219.387 115.719 219.387 116.738C219.387 117.757 220.213 118.583 221.232 118.583Z" fill="white" stroke="white" stroke-width="0.910796" stroke-miterlimit="10"/>
<g filter="url(#filter5_f_6081_140965)">
<path d="M221.232 118.583C222.251 118.583 223.077 117.757 223.077 116.738C223.077 115.719 222.251 114.893 221.232 114.893C220.213 114.893 219.387 115.719 219.387 116.738C219.387 117.757 220.213 118.583 221.232 118.583Z" fill="white"/>
<path d="M221.232 118.583C222.251 118.583 223.077 117.757 223.077 116.738C223.077 115.719 222.251 114.893 221.232 114.893C220.213 114.893 219.387 115.719 219.387 116.738C219.387 117.757 220.213 118.583 221.232 118.583Z" stroke="white" stroke-width="0.910796" stroke-miterlimit="10"/>
</g>
<path d="M221.232 126.138C222.251 126.138 223.077 125.312 223.077 124.293C223.077 123.274 222.251 122.448 221.232 122.448C220.213 122.448 219.387 123.274 219.387 124.293C219.387 125.312 220.213 126.138 221.232 126.138Z" fill="white" stroke="white" stroke-width="0.910796" stroke-miterlimit="10"/>
<g filter="url(#filter6_f_6081_140965)">
<path d="M221.232 126.138C222.251 126.138 223.077 125.312 223.077 124.293C223.077 123.274 222.251 122.448 221.232 122.448C220.213 122.448 219.387 123.274 219.387 124.293C219.387 125.312 220.213 126.138 221.232 126.138Z" fill="white"/>
<path d="M221.232 126.138C222.251 126.138 223.077 125.312 223.077 124.293C223.077 123.274 222.251 122.448 221.232 122.448C220.213 122.448 219.387 123.274 219.387 124.293C219.387 125.312 220.213 126.138 221.232 126.138Z" stroke="white" stroke-width="0.910796" stroke-miterlimit="10"/>
</g>
<path d="M218.401 133.693C219.42 133.693 220.246 132.867 220.246 131.848C220.246 130.829 219.42 130.003 218.401 130.003C217.382 130.003 216.556 130.829 216.556 131.848C216.556 132.867 217.382 133.693 218.401 133.693Z" fill="white" stroke="white" stroke-width="0.910796" stroke-miterlimit="10"/>
<g filter="url(#filter7_f_6081_140965)">
<path d="M218.401 133.693C219.42 133.693 220.246 132.867 220.246 131.848C220.246 130.829 219.42 130.003 218.401 130.003C217.382 130.003 216.556 130.829 216.556 131.848C216.556 132.867 217.382 133.693 218.401 133.693Z" fill="white"/>
<path d="M218.401 133.693C219.42 133.693 220.246 132.867 220.246 131.848C220.246 130.829 219.42 130.003 218.401 130.003C217.382 130.003 216.556 130.829 216.556 131.848C216.556 132.867 217.382 133.693 218.401 133.693Z" stroke="white" stroke-width="0.910796" stroke-miterlimit="10"/>
</g>
<path d="M208.495 141.372C209.514 141.372 210.34 140.546 210.34 139.527C210.34 138.508 209.514 137.682 208.495 137.682C207.476 137.682 206.65 138.508 206.65 139.527C206.65 140.546 207.476 141.372 208.495 141.372Z" fill="white" stroke="white" stroke-width="0.910796" stroke-miterlimit="10"/>
<g filter="url(#filter8_f_6081_140965)">
<path d="M208.495 141.372C209.514 141.372 210.34 140.546 210.34 139.527C210.34 138.508 209.514 137.682 208.495 137.682C207.476 137.682 206.65 138.508 206.65 139.527C206.65 140.546 207.476 141.372 208.495 141.372Z" fill="white"/>
<path d="M208.495 141.372C209.514 141.372 210.34 140.546 210.34 139.527C210.34 138.508 209.514 137.682 208.495 137.682C207.476 137.682 206.65 138.508 206.65 139.527C206.65 140.546 207.476 141.372 208.495 141.372Z" stroke="white" stroke-width="0.910796" stroke-miterlimit="10"/>
</g>
<path d="M223.851 144.097C224.87 144.097 225.696 143.271 225.696 142.252C225.696 141.233 224.87 140.407 223.851 140.407C222.832 140.407 222.006 141.233 222.006 142.252C222.006 143.271 222.832 144.097 223.851 144.097Z" fill="white" stroke="white" stroke-width="0.910796" stroke-miterlimit="10"/>
<g filter="url(#filter9_f_6081_140965)">
<path d="M223.851 144.097C224.87 144.097 225.696 143.271 225.696 142.252C225.696 141.233 224.87 140.407 223.851 140.407C222.832 140.407 222.006 141.233 222.006 142.252C222.006 143.271 222.832 144.097 223.851 144.097Z" fill="white"/>
<path d="M223.851 144.097C224.87 144.097 225.696 143.271 225.696 142.252C225.696 141.233 224.87 140.407 223.851 140.407C222.832 140.407 222.006 141.233 222.006 142.252C222.006 143.271 222.832 144.097 223.851 144.097Z" stroke="white" stroke-width="0.910796" stroke-miterlimit="10"/>
</g>
<path d="M213.449 151.652C214.468 151.652 215.294 150.826 215.294 149.807C215.294 148.788 214.468 147.962 213.449 147.962C212.43 147.962 211.604 148.788 211.604 149.807C211.604 150.826 212.43 151.652 213.449 151.652Z" fill="white" stroke="white" stroke-width="0.910796" stroke-miterlimit="10"/>
<g filter="url(#filter10_f_6081_140965)">
<path d="M213.449 151.652C214.468 151.652 215.294 150.826 215.294 149.807C215.294 148.788 214.468 147.962 213.449 147.962C212.43 147.962 211.604 148.788 211.604 149.807C211.604 150.826 212.43 151.652 213.449 151.652Z" fill="white"/>
<path d="M213.449 151.652C214.468 151.652 215.294 150.826 215.294 149.807C215.294 148.788 214.468 147.962 213.449 147.962C212.43 147.962 211.604 148.788 211.604 149.807C211.604 150.826 212.43 151.652 213.449 151.652Z" stroke="white" stroke-width="0.910796" stroke-miterlimit="10"/>
</g>
<path d="M208.495 164.41C209.514 164.41 210.34 163.584 210.34 162.565C210.34 161.546 209.514 160.72 208.495 160.72C207.476 160.72 206.65 161.546 206.65 162.565C206.65 163.584 207.476 164.41 208.495 164.41Z" fill="white" stroke="white" stroke-width="0.910796" stroke-miterlimit="10"/>
<g filter="url(#filter11_f_6081_140965)">
<path d="M208.495 164.41C209.514 164.41 210.34 163.584 210.34 162.565C210.34 161.546 209.514 160.72 208.495 160.72C207.476 160.72 206.65 161.546 206.65 162.565C206.65 163.584 207.476 164.41 208.495 164.41Z" fill="white"/>
<path d="M208.495 164.41C209.514 164.41 210.34 163.584 210.34 162.565C210.34 161.546 209.514 160.72 208.495 160.72C207.476 160.72 206.65 161.546 206.65 162.565C206.65 163.584 207.476 164.41 208.495 164.41Z" stroke="white" stroke-width="0.910796" stroke-miterlimit="10"/>
</g>
<path d="M226.538 82.791C227.557 82.791 228.383 81.965 228.383 80.946C228.383 79.9271 227.557 79.1011 226.538 79.1011C225.519 79.1011 224.693 79.9271 224.693 80.946C224.693 81.965 225.519 82.791 226.538 82.791Z" fill="white" stroke="white" stroke-width="0.910796" stroke-miterlimit="10"/>
<g filter="url(#filter12_f_6081_140965)">
<path d="M226.538 82.791C227.557 82.791 228.383 81.965 228.383 80.946C228.383 79.9271 227.557 79.1011 226.538 79.1011C225.519 79.1011 224.693 79.9271 224.693 80.946C224.693 81.965 225.519 82.791 226.538 82.791Z" fill="white"/>
<path d="M226.538 82.791C227.557 82.791 228.383 81.965 228.383 80.946C228.383 79.9271 227.557 79.1011 226.538 79.1011C225.519 79.1011 224.693 79.9271 224.693 80.946C224.693 81.965 225.519 82.791 226.538 82.791Z" stroke="white" stroke-width="0.910796" stroke-miterlimit="10"/>
</g>
<path d="M211.534 58.2296C212.553 58.2296 213.379 57.4036 213.379 56.3846C213.379 55.3657 212.553 54.5397 211.534 54.5397C210.515 54.5397 209.689 55.3657 209.689 56.3846C209.689 57.4036 210.515 58.2296 211.534 58.2296Z" fill="white" stroke="white" stroke-width="0.910796" stroke-miterlimit="10"/>
<g filter="url(#filter13_f_6081_140965)">
<path d="M211.534 58.2296C212.553 58.2296 213.379 57.4036 213.379 56.3846C213.379 55.3657 212.553 54.5397 211.534 54.5397C210.515 54.5397 209.689 55.3657 209.689 56.3846C209.689 57.4036 210.515 58.2296 211.534 58.2296Z" fill="white"/>
<path d="M211.534 58.2296C212.553 58.2296 213.379 57.4036 213.379 56.3846C213.379 55.3657 212.553 54.5397 211.534 54.5397C210.515 54.5397 209.689 55.3657 209.689 56.3846C209.689 57.4036 210.515 58.2296 211.534 58.2296Z" stroke="white" stroke-width="0.910796" stroke-miterlimit="10"/>
</g>
<defs>
<filter id="filter0_d_6081_140965" x="210.887" y="33.5335" width="47.1183" height="47.1185" filterUnits="userSpaceOnUse" color-interpolation-filters="sRGB">
<feFlood flood-opacity="0" result="BackgroundImageFix"/>
<feColorMatrix in="SourceAlpha" type="matrix" values="0 0 0 0 0 0 0 0 0 0 0 0 0 0 0 0 0 0 127 0" result="hardAlpha"/>
<feOffset/>
<feGaussianBlur stdDeviation="3.7576"/>
<feComposite in2="hardAlpha" operator="out"/>
<feColorMatrix type="matrix" values="0 0 0 0 0 0 0 0 0 0.501961 0 0 0 0 1 0 0 0 0.7 0"/>
<feBlend mode="normal" in2="BackgroundImageFix" result="effect1_dropShadow_6081_140965"/>
<feBlend mode="normal" in="SourceGraphic" in2="effect1_dropShadow_6081_140965" result="shape"/>
</filter>
<filter id="filter1_f_6081_140965" x="213.37" y="36.0162" width="42.1529" height="42.1532" filterUnits="userSpaceOnUse" color-interpolation-filters="sRGB">
<feFlood flood-opacity="0" result="BackgroundImageFix"/>
<feBlend mode="normal" in="SourceGraphic" in2="BackgroundImageFix" result="shape"/>
<feGaussianBlur stdDeviation="2.51626" result="effect1_foregroundBlur_6081_140965"/>
</filter>
<filter id="filter2_f_6081_140965" x="211.379" y="83.8252" width="9.09883" height="9.09846" filterUnits="userSpaceOnUse" color-interpolation-filters="sRGB">
<feFlood flood-opacity="0" result="BackgroundImageFix"/>
<feBlend mode="normal" in="SourceGraphic" in2="BackgroundImageFix" result="shape"/>
<feGaussianBlur stdDeviation="1.12444" result="effect1_foregroundBlur_6081_140965"/>
</filter>
<filter id="filter3_f_6081_140965" x="211.379" y="96.4586" width="9.09883" height="9.09846" filterUnits="userSpaceOnUse" color-interpolation-filters="sRGB">
<feFlood flood-opacity="0" result="BackgroundImageFix"/>
<feBlend mode="normal" in="SourceGraphic" in2="BackgroundImageFix" result="shape"/>
<feGaussianBlur stdDeviation="1.12444" result="effect1_foregroundBlur_6081_140965"/>
</filter>
<filter id="filter4_f_6081_140965" x="213.851" y="104.633" width="9.09883" height="9.09846" filterUnits="userSpaceOnUse" color-interpolation-filters="sRGB">
<feFlood flood-opacity="0" result="BackgroundImageFix"/>
<feBlend mode="normal" in="SourceGraphic" in2="BackgroundImageFix" result="shape"/>
<feGaussianBlur stdDeviation="1.12444" result="effect1_foregroundBlur_6081_140965"/>
</filter>
<filter id="filter5_f_6081_140965" x="216.682" y="112.188" width="9.09883" height="9.09846" filterUnits="userSpaceOnUse" color-interpolation-filters="sRGB">
<feFlood flood-opacity="0" result="BackgroundImageFix"/>
<feBlend mode="normal" in="SourceGraphic" in2="BackgroundImageFix" result="shape"/>
<feGaussianBlur stdDeviation="1.12444" result="effect1_foregroundBlur_6081_140965"/>
</filter>
<filter id="filter6_f_6081_140965" x="216.682" y="119.744" width="9.09883" height="9.09846" filterUnits="userSpaceOnUse" color-interpolation-filters="sRGB">
<feFlood flood-opacity="0" result="BackgroundImageFix"/>
<feBlend mode="normal" in="SourceGraphic" in2="BackgroundImageFix" result="shape"/>
<feGaussianBlur stdDeviation="1.12444" result="effect1_foregroundBlur_6081_140965"/>
</filter>
<filter id="filter7_f_6081_140965" x="213.851" y="127.299" width="9.09883" height="9.09846" filterUnits="userSpaceOnUse" color-interpolation-filters="sRGB">
<feFlood flood-opacity="0" result="BackgroundImageFix"/>
<feBlend mode="normal" in="SourceGraphic" in2="BackgroundImageFix" result="shape"/>
<feGaussianBlur stdDeviation="1.12444" result="effect1_foregroundBlur_6081_140965"/>
</filter>
<filter id="filter8_f_6081_140965" x="203.946" y="134.978" width="9.09883" height="9.09846" filterUnits="userSpaceOnUse" color-interpolation-filters="sRGB">
<feFlood flood-opacity="0" result="BackgroundImageFix"/>
<feBlend mode="normal" in="SourceGraphic" in2="BackgroundImageFix" result="shape"/>
<feGaussianBlur stdDeviation="1.12444" result="effect1_foregroundBlur_6081_140965"/>
</filter>
<filter id="filter9_f_6081_140965" x="219.301" y="137.703" width="9.09883" height="9.09846" filterUnits="userSpaceOnUse" color-interpolation-filters="sRGB">
<feFlood flood-opacity="0" result="BackgroundImageFix"/>
<feBlend mode="normal" in="SourceGraphic" in2="BackgroundImageFix" result="shape"/>
<feGaussianBlur stdDeviation="1.12444" result="effect1_foregroundBlur_6081_140965"/>
</filter>
<filter id="filter10_f_6081_140965" x="208.9" y="145.258" width="9.09883" height="9.09846" filterUnits="userSpaceOnUse" color-interpolation-filters="sRGB">
<feFlood flood-opacity="0" result="BackgroundImageFix"/>
<feBlend mode="normal" in="SourceGraphic" in2="BackgroundImageFix" result="shape"/>
<feGaussianBlur stdDeviation="1.12444" result="effect1_foregroundBlur_6081_140965"/>
</filter>
<filter id="filter11_f_6081_140965" x="203.946" y="158.015" width="9.09883" height="9.09846" filterUnits="userSpaceOnUse" color-interpolation-filters="sRGB">
<feFlood flood-opacity="0" result="BackgroundImageFix"/>
<feBlend mode="normal" in="SourceGraphic" in2="BackgroundImageFix" result="shape"/>
<feGaussianBlur stdDeviation="1.12444" result="effect1_foregroundBlur_6081_140965"/>
</filter>
<filter id="filter12_f_6081_140965" x="221.988" y="76.3968" width="9.09883" height="9.09846" filterUnits="userSpaceOnUse" color-interpolation-filters="sRGB">
<feFlood flood-opacity="0" result="BackgroundImageFix"/>
<feBlend mode="normal" in="SourceGraphic" in2="BackgroundImageFix" result="shape"/>
<feGaussianBlur stdDeviation="1.12444" result="effect1_foregroundBlur_6081_140965"/>
</filter>
<filter id="filter13_f_6081_140965" x="206.985" y="51.8354" width="9.09883" height="9.09846" filterUnits="userSpaceOnUse" color-interpolation-filters="sRGB">
<feFlood flood-opacity="0" result="BackgroundImageFix"/>
<feBlend mode="normal" in="SourceGraphic" in2="BackgroundImageFix" result="shape"/>
<feGaussianBlur stdDeviation="1.12444" result="effect1_foregroundBlur_6081_140965"/>
</filter>
</defs>
</svg>