<?xml version="1.0" encoding="utf-8"?>
<svg xmlns="http://www.w3.org/2000/svg" width="22" height="22" viewBox="0 0 22 22" fill="none">
<path d="M19.6513 7.84669H14.5428V7.61568C14.5428 6.76864 14.7168 6.0679 15.0647 5.52118C15.4127 4.96675 16.0137 4.48162 16.8835 4.0504L17.2789 3.85789C17.9827 3.51137 18.1646 3.21106 18.1646 2.85684C18.1646 2.43332 17.785 2.12531 17.1761 2.12531C16.4486 2.12531 15.9029 2.49492 15.5234 3.24186L14.5428 2.28701C14.7563 1.84039 15.1042 1.48617 15.5629 1.20126C16.0295 0.916346 16.5435 0.777739 17.105 0.777739C17.8088 0.777739 18.4177 0.954847 18.9159 1.32447C19.4299 1.69408 19.683 2.20231 19.683 2.84144C19.683 3.86559 19.0899 4.48932 17.9827 5.04375L17.358 5.35177C16.6937 5.67518 16.3695 5.9678 16.2746 6.48372H19.6513V7.84669ZM19.2006 9.41757H13.6096L10.8181 14.1302H16.4091L19.2085 18.8428L22 14.1302L19.2006 9.41757ZM11.3005 17.2797C7.74191 17.2797 4.84759 14.4613 4.84759 10.9961C4.84759 7.53098 7.74191 4.71264 11.3005 4.71264L13.5147 0.20791C12.7951 0.0693032 12.0597 0 11.3005 0C5.06111 0 0 4.92825 0 10.9961C0 17.0641 5.0532 22 11.3005 22C13.7836 22 16.0848 21.2146 17.9511 19.8901L15.4996 15.7627C14.3767 16.7021 12.9058 17.2797 11.3005 17.2797Z" fill="#FF492C"/>
</svg>